<?xml version="1.0" encoding="iso-8859-1"?>
<!-- Uploaded to: SVG Repo, www.svgrepo.com, Generator: SVG Repo Mixer Tools -->
<svg height="800px" width="800px" version="1.1" id="Layer_1" xmlns="http://www.w3.org/2000/svg" xmlns:xlink="http://www.w3.org/1999/xlink" 
	 viewBox="0 0 512 512" xml:space="preserve">
<path style="fill:#ACABB1;" d="M102.4,130.425V42.513c0-20.47,16.653-37.124,37.124-37.124h232.951
	c20.471,0,37.125,16.653,37.125,37.124v87.912H102.4z"/>
<path style="fill:#898790;" d="M372.476,5.389h-30.036c20.47,0,37.124,16.653,37.124,37.124v87.912H409.6V42.513
	C409.6,22.043,392.947,5.389,372.476,5.389z"/>
<path style="fill:#FFB656;" d="M458.429,80.842h-54.218H107.789H53.571c-26.568,0-48.182,21.615-48.182,48.182v232.394
	c0,26.567,21.614,48.182,48.182,48.182h54.218h296.421h54.218c26.567,0,48.182-21.615,48.182-48.182V129.024
	C506.611,102.457,484.995,80.842,458.429,80.842z"/>
<g>
	<path style="fill:#FFA733;" d="M458.429,80.842h-29.642c26.567,0,48.182,21.615,48.182,48.182v232.394
		c0,26.567-21.615,48.182-48.182,48.182h29.642c26.567,0,48.182-21.615,48.182-48.182V129.024
		C506.611,102.457,484.995,80.842,458.429,80.842z"/>
	<path style="fill:#FFA733;" d="M430.332,274.863H81.668c-12.343,0-22.384,10.041-22.384,22.384v25.297
		c0,12.342,10.041,22.383,22.384,22.383h348.664c12.342,0,22.384-10.041,22.384-22.384v-25.297
		C452.716,284.904,442.675,274.863,430.332,274.863z"/>
</g>
<g>
	<path style="fill:#ECE5DD;" d="M146.751,506.611c-24.455,0-44.351-19.896-44.351-44.351V274.863h307.2v148.524
		c0,3.551-0.461,7.094-1.37,10.529l-2.123,8.021h-51.773c-5.187,0-9.407,4.22-9.407,9.407v53.73l-9.332,1.263
		c-0.991,0.135-1.488,0.203-188.839,0.275h-0.004V506.611z"/>
	<path style="fill:#ECE5DD;" d="M365.249,506.611c24.455,0,44.351-19.896,44.351-44.351V274.863H102.4v148.524
		c0,3.551,0.461,7.094,1.37,10.529l2.123,8.021l61.18,63.135l9.332,1.263c0.991,0.135,1.488,0.203,188.839,0.275H365.249z"/>
</g>
<path style="fill:#D9CBBD;" d="M380.918,274.863v187.396c0,24.302-19.651,44.093-43.896,44.339
	c8.903,0.004,18.298,0.008,28.223,0.012h0.004c24.455,0,44.351-19.896,44.351-44.351V274.863H380.918z"/>
<path style="fill:#3E3D43;" d="M118.975,237.137c-32.914,0-59.691-26.777-59.691-59.691V80.842h393.432v96.604
	c0,32.914-26.777,59.691-59.691,59.691H118.975z"/>
<path style="fill:#898790;" d="M363.789,32.337H148.211c-4.465,0-8.084,3.618-8.084,8.084V51.2c0,4.466,3.62,8.084,8.084,8.084
	c4.465,0,8.084-3.618,8.084-8.084v-2.695h199.411V51.2c0,4.466,3.618,8.084,8.084,8.084s8.084-3.618,8.084-8.084V40.421
	C371.874,35.955,368.255,32.337,363.789,32.337z"/>
<path style="fill:#FF6342;" d="M342.232,156.295c13.372,0,24.253,10.88,24.253,24.253c0,13.372-10.88,24.253-24.253,24.253
	s-24.253-10.88-24.253-24.253C317.979,167.175,328.859,156.295,342.232,156.295z"/>
<g>
	<path style="fill:#BABABA;" d="M148.211,328.758h150.905c4.466,0,8.084-3.618,8.084-8.084s-3.618-8.084-8.084-8.084H148.211
		c-4.465,0-8.084,3.618-8.084,8.084S143.746,328.758,148.211,328.758z"/>
	<path style="fill:#BABABA;" d="M339.61,328.471l24.083,0.286c0.032,0.001,0.066,0.001,0.098,0.001c4.42,0,8.029-3.557,8.081-7.988
		c0.054-4.465-3.524-8.126-7.987-8.179l-24.083-0.286c-0.032-0.001-0.066-0.001-0.098-0.001c-4.42,0-8.029,3.557-8.081,7.988
		C331.569,324.757,335.147,328.419,339.61,328.471z"/>
	<path style="fill:#BABABA;" d="M234.442,377.263h-86.232c-4.465,0-8.084,3.618-8.084,8.084s3.62,8.084,8.084,8.084h86.232
		c4.465,0,8.084-3.618,8.084-8.084S238.907,377.263,234.442,377.263z"/>
	<path style="fill:#BABABA;" d="M371.874,385.347c0-4.466-3.618-8.084-8.084-8.084h-86.232c-4.466,0-8.084,3.618-8.084,8.084
		s3.618,8.084,8.084,8.084h86.232C368.255,393.432,371.874,389.813,371.874,385.347z"/>
</g>
<path style="fill:#C0AB91;" d="M167.121,505.079l-1.331-1.331l-59.896-61.811l-1.426-5.389h53.201
	c8.158,0,14.796,6.638,14.796,14.796v54.458L167.121,505.079z"/>
<path d="M342.232,210.189c16.344,0,29.642-13.298,29.642-29.642s-13.298-29.642-29.642-29.642s-29.642,13.298-29.642,29.642
	S325.887,210.189,342.232,210.189z M342.232,167.074c7.43,0,13.474,6.044,13.474,13.474s-6.044,13.474-13.474,13.474
	s-13.474-6.044-13.474-13.474S334.802,167.074,342.232,167.074z"/>
<path d="M458.429,75.453h-43.439V42.513C414.989,19.071,395.918,0,372.476,0H139.524c-23.442,0-42.513,19.071-42.513,42.513v32.939
	H53.571C24.032,75.453,0,99.484,0,129.024v232.394c0,29.54,24.032,53.571,53.571,53.571h43.439v8.398
	c0,12.383,4.823,24.025,13.578,32.782l46.095,46.095c6.279,6.278,14.626,9.736,23.506,9.736h185.06
	c27.426,0,49.739-22.313,49.739-49.741v-47.27h43.439c29.54,0,53.571-24.032,53.571-53.571V129.024
	C512,99.484,487.968,75.453,458.429,75.453z M113.179,42.513c0-14.526,11.819-26.345,26.345-26.345h232.951
	c14.528,0,26.346,11.819,26.346,26.345v32.939H113.179V42.513z M70.063,91.621h371.874v85.825c0,26.97-21.942,48.912-48.912,48.912
	h-274.05c-26.97,0-48.912-21.942-48.912-48.912V91.621z M97.011,334.147H81.668c-6.399,0-11.605-5.205-11.605-11.605v-25.297
	c0-6.398,5.206-11.604,11.605-11.604h15.343V334.147z M161.684,484.398l-37.072-37.072h33.055c2.215,0,4.017,1.802,4.017,4.017
	L161.684,484.398L161.684,484.398z M414.989,285.642h15.343c6.399,0,11.605,5.205,11.605,11.605v25.297
	c0,6.399-5.206,11.605-11.605,11.605h-15.343V285.642z M495.832,361.418c0,20.657-16.746,37.403-37.403,37.403h-43.439v-48.505
	h15.343c15.338,0,27.773-12.435,27.773-27.773v-25.297c0-15.338-12.435-27.773-27.773-27.773H189.126
	c-4.465,0-8.084,3.62-8.084,8.084c0,4.465,3.62,8.084,8.084,8.084h209.695v176.617c0,18.542-15.031,33.573-33.572,33.573H180.188
	c-0.79,0-1.566-0.072-2.336-0.177v-44.311c0-11.148-9.037-20.186-20.186-20.186H114.19c-0.663-2.505-1.011-5.11-1.011-7.771V285.642
	h40.302c4.465,0,8.084-3.62,8.084-8.084c0-4.465-3.62-8.084-8.084-8.084H81.668c-15.338,0-27.773,12.435-27.773,27.773v25.296
	c0,15.338,12.435,27.773,27.773,27.773h15.343v48.505H53.571c-20.657,0-37.403-16.746-37.403-37.403V129.024
	c0-20.657,16.746-37.403,37.403-37.403h0.323v85.825c0,35.942,29.138,65.08,65.08,65.08h274.05c35.942,0,65.08-29.138,65.08-65.08
	V91.621h0.323c20.657,0,37.403,16.746,37.403,37.403V361.418z"/>
</svg>